<svg xmlns="http://www.w3.org/2000/svg" xmlns:xlink="http://www.w3.org/1999/xlink" width="384" zoomAndPan="magnify" viewBox="0 0 288 72" height="96" preserveAspectRatio="xMidYMid meet" version="1.0"><defs><g/><clipPath id="87eb541563"><rect x="0" width="284" y="0" height="48"/></clipPath></defs><g transform="matrix(1, 0, 0, 1, 3, 12)"><g clip-path="url(#87eb541563)"><g fill="#ffffff" fill-opacity="1"><g transform="translate(1.277057, 34.582331)"><g><path d="M 0.78125 -19.875 C 0.34375 -19.976562 0.125 -20.332031 0.125 -20.9375 C 0.125 -21.550781 0.429688 -22.109375 1.046875 -22.609375 C 0.785156 -22.796875 0.566406 -23.035156 0.390625 -23.328125 C 0.210938 -23.628906 0.125 -23.929688 0.125 -24.234375 C 0.125 -24.535156 0.175781 -24.78125 0.28125 -24.96875 C 0.394531 -25.164062 0.5625 -25.296875 0.78125 -25.359375 C 1.625 -24.835938 2.472656 -24.578125 3.328125 -24.578125 C 3.660156 -24.578125 4.109375 -24.707031 4.671875 -24.96875 C 5.242188 -25.226562 5.671875 -25.359375 5.953125 -25.359375 C 6.648438 -25.359375 7.257812 -24.914062 7.78125 -24.03125 C 8.289062 -24.914062 8.882812 -25.359375 9.5625 -25.359375 C 9.84375 -25.359375 10.265625 -25.226562 10.828125 -24.96875 C 11.398438 -24.707031 11.851562 -24.578125 12.1875 -24.578125 C 13.007812 -24.578125 13.859375 -24.835938 14.734375 -25.359375 C 15.003906 -25.359375 15.195312 -25.15625 15.3125 -24.75 C 15.351562 -24.59375 15.375 -24.390625 15.375 -24.140625 C 15.375 -23.898438 15.289062 -23.644531 15.125 -23.375 C 14.863281 -22.945312 14.640625 -22.691406 14.453125 -22.609375 C 14.703125 -22.460938 14.914062 -22.234375 15.09375 -21.921875 C 15.28125 -21.609375 15.375 -21.332031 15.375 -21.09375 C 15.375 -20.851562 15.351562 -20.65625 15.3125 -20.5 C 15.269531 -20.34375 15.21875 -20.222656 15.15625 -20.140625 C 15.039062 -20.003906 14.898438 -19.914062 14.734375 -19.875 C 14.078125 -20.632812 13.171875 -21.015625 12.015625 -21.015625 L 10.34375 -20.9375 C 10.207031 -20.8125 10.140625 -20.097656 10.140625 -18.796875 C 10.140625 -17.503906 10.195312 -16.46875 10.3125 -15.6875 C 10.4375 -14.90625 10.585938 -14.328125 10.765625 -13.953125 C 10.953125 -13.578125 11.128906 -13.28125 11.296875 -13.0625 C 11.472656 -12.851562 11.617188 -12.691406 11.734375 -12.578125 C 11.859375 -12.472656 11.921875 -12.375 11.921875 -12.28125 C 11.921875 -12.1875 11.875 -12.09375 11.78125 -12 C 11.695312 -11.90625 11.585938 -11.804688 11.453125 -11.703125 C 11.328125 -11.609375 11.1875 -11.425781 11.03125 -11.15625 C 10.875 -10.894531 10.734375 -10.578125 10.609375 -10.203125 C 10.296875 -9.304688 10.140625 -8.007812 10.140625 -6.3125 C 10.140625 -4.625 10.28125 -3.351562 10.5625 -2.5 C 10.851562 -1.644531 11.367188 -0.863281 12.109375 -0.15625 C 12.109375 0.226562 11.804688 0.519531 11.203125 0.71875 C 10.972656 0.78125 10.65625 0.8125 10.25 0.8125 C 9.84375 0.8125 9.421875 0.65625 8.984375 0.34375 C 8.554688 0.03125 8.242188 -0.273438 8.046875 -0.578125 L 7.78125 -1.0625 C 7.46875 -0.28125 6.910156 0.273438 6.109375 0.609375 C 5.785156 0.742188 5.457031 0.8125 5.125 0.8125 C 4.789062 0.8125 4.503906 0.773438 4.265625 0.703125 C 4.035156 0.640625 3.867188 0.5625 3.765625 0.46875 C 3.523438 0.25 3.390625 0.0390625 3.359375 -0.15625 C 4.097656 -0.863281 4.609375 -1.644531 4.890625 -2.5 C 5.179688 -3.363281 5.328125 -4.453125 5.328125 -5.765625 C 5.328125 -7.085938 5.265625 -8.144531 5.140625 -8.9375 C 5.023438 -9.726562 4.878906 -10.300781 4.703125 -10.65625 C 4.535156 -11.019531 4.359375 -11.300781 4.171875 -11.5 C 3.992188 -11.695312 3.847656 -11.847656 3.734375 -11.953125 C 3.617188 -12.066406 3.5625 -12.171875 3.5625 -12.265625 C 3.5625 -12.367188 3.617188 -12.472656 3.734375 -12.578125 C 3.847656 -12.691406 3.992188 -12.851562 4.171875 -13.0625 C 4.359375 -13.28125 4.535156 -13.582031 4.703125 -13.96875 C 5.117188 -14.84375 5.328125 -16.144531 5.328125 -17.875 C 5.328125 -19.613281 5.257812 -20.632812 5.125 -20.9375 C 5.125 -20.988281 4.644531 -21.015625 3.6875 -21.015625 C 2.738281 -21.015625 2.09375 -20.921875 1.75 -20.734375 C 1.40625 -20.554688 1.082031 -20.269531 0.78125 -19.875 Z M 0.78125 -19.875 "/></g></g></g><g fill="#ffffff" fill-opacity="1"><g transform="translate(16.661285, 34.582331)"><g><path d="M 7.859375 -19.40625 C 9.148438 -20.644531 10.664062 -21.265625 12.40625 -21.265625 C 13.78125 -21.265625 14.925781 -20.722656 15.84375 -19.640625 C 16.769531 -18.566406 17.234375 -16.992188 17.234375 -14.921875 C 17.234375 -12.765625 17.722656 -11.175781 18.703125 -10.15625 C 18.804688 -10.039062 18.859375 -9.960938 18.859375 -9.921875 C 18.859375 -9.890625 18.804688 -9.832031 18.703125 -9.75 C 18.609375 -9.664062 18.488281 -9.53125 18.34375 -9.34375 C 18.195312 -9.164062 18.050781 -8.929688 17.90625 -8.640625 C 17.5625 -7.929688 17.390625 -6.882812 17.390625 -5.5 C 17.390625 -4.125 17.535156 -3.046875 17.828125 -2.265625 C 18.117188 -1.492188 18.648438 -0.753906 19.421875 -0.046875 C 19.128906 0.535156 18.488281 0.828125 17.5 0.828125 C 16.519531 0.828125 15.578125 0.25 14.671875 -0.90625 C 13.804688 0.25 12.925781 0.828125 12.03125 0.828125 C 11.132812 0.828125 10.613281 0.535156 10.46875 -0.046875 C 11.21875 -0.765625 11.742188 -1.539062 12.046875 -2.375 C 12.347656 -3.207031 12.5 -4.140625 12.5 -5.171875 C 12.5 -6.210938 12.441406 -6.992188 12.328125 -7.515625 C 12.222656 -8.035156 12.09375 -8.429688 11.9375 -8.703125 C 11.78125 -8.984375 11.625 -9.207031 11.46875 -9.375 C 11.3125 -9.550781 11.175781 -9.679688 11.0625 -9.765625 C 10.957031 -9.847656 10.90625 -9.90625 10.90625 -9.9375 C 10.90625 -9.976562 10.953125 -10.035156 11.046875 -10.109375 C 11.148438 -10.191406 11.269531 -10.3125 11.40625 -10.46875 C 11.550781 -10.625 11.6875 -10.835938 11.8125 -11.109375 C 12.15625 -11.742188 12.328125 -12.8125 12.328125 -14.3125 C 12.328125 -15.8125 12.1875 -16.90625 11.90625 -17.59375 C 11.625 -18.28125 11.144531 -18.625 10.46875 -18.625 C 9.226562 -18.625 8.40625 -17.789062 8 -16.125 C 7.863281 -15.539062 7.796875 -14.8125 7.796875 -13.9375 C 7.796875 -13.070312 7.867188 -12.359375 8.015625 -11.796875 C 8.160156 -11.234375 8.316406 -10.851562 8.484375 -10.65625 C 8.660156 -10.46875 8.820312 -10.3125 8.96875 -10.1875 C 9.113281 -10.0625 9.1875 -9.976562 9.1875 -9.9375 C 9.1875 -9.894531 9.132812 -9.828125 9.03125 -9.734375 C 8.9375 -9.648438 8.820312 -9.515625 8.6875 -9.328125 C 8.5625 -9.140625 8.4375 -8.898438 8.3125 -8.609375 C 7.976562 -7.910156 7.8125 -6.875 7.8125 -5.5 C 7.8125 -4.132812 7.957031 -3.0625 8.25 -2.28125 C 8.539062 -1.5 9.070312 -0.753906 9.84375 -0.046875 C 9.757812 0.171875 9.566406 0.367188 9.265625 0.546875 C 8.972656 0.734375 8.644531 0.828125 8.28125 0.828125 C 7.195312 0.828125 6.179688 0.25 5.234375 -0.90625 C 4.359375 0.25 3.441406 0.828125 2.484375 0.828125 C 1.523438 0.828125 0.96875 0.535156 0.8125 -0.046875 C 1.570312 -0.753906 2.101562 -1.5 2.40625 -2.28125 C 2.707031 -3.070312 2.859375 -3.972656 2.859375 -4.984375 C 2.859375 -5.992188 2.800781 -6.753906 2.6875 -7.265625 C 2.570312 -7.773438 2.4375 -8.179688 2.28125 -8.484375 C 2.125 -8.796875 1.96875 -9.050781 1.8125 -9.25 C 1.65625 -9.457031 1.519531 -9.613281 1.40625 -9.71875 C 1.289062 -9.832031 1.234375 -9.898438 1.234375 -9.921875 C 1.234375 -9.941406 1.289062 -9.984375 1.40625 -10.046875 C 1.519531 -10.117188 1.65625 -10.238281 1.8125 -10.40625 C 1.96875 -10.582031 2.117188 -10.804688 2.265625 -11.078125 C 2.660156 -11.753906 2.859375 -12.816406 2.859375 -14.265625 L 2.859375 -18.390625 C 2.859375 -20.453125 2.710938 -22.046875 2.421875 -23.171875 C 2.140625 -24.296875 1.628906 -25.332031 0.890625 -26.28125 C 0.890625 -26.675781 1.1875 -26.960938 1.78125 -27.140625 C 2.019531 -27.210938 2.289062 -27.25 2.59375 -27.25 C 3.707031 -27.25 4.65625 -26.675781 5.4375 -25.53125 C 5.789062 -26.25 6.269531 -26.753906 6.875 -27.046875 C 7.113281 -27.179688 7.40625 -27.25 7.75 -27.25 C 8.101562 -27.25 8.410156 -27.164062 8.671875 -27 C 8.929688 -26.832031 9.082031 -26.675781 9.125 -26.53125 L 9.1875 -26.28125 C 8.476562 -24.34375 8.035156 -22.050781 7.859375 -19.40625 Z M 7.859375 -19.40625 "/></g></g></g><g fill="#ffffff" fill-opacity="1"><g transform="translate(36.930168, 34.582331)"><g><path d="M 13.578125 -6.515625 C 13.578125 -6.703125 13.675781 -6.847656 13.875 -6.953125 C 14.070312 -7.066406 14.332031 -7.125 14.65625 -7.125 C 14.988281 -7.125 15.289062 -7.0625 15.5625 -6.9375 C 15.84375 -6.820312 15.984375 -6.664062 15.984375 -6.46875 C 15.984375 -2.96875 14.960938 -0.660156 12.921875 0.453125 C 12.253906 0.816406 11.632812 1.019531 11.0625 1.0625 C 10.5 1.113281 10.050781 1.140625 9.71875 1.140625 C 7.6875 1.140625 6.050781 0.515625 4.8125 -0.734375 C 3.582031 -1.984375 2.851562 -3.875 2.625 -6.40625 C 2.5 -7.988281 1.9375 -9.09375 0.9375 -9.71875 C 0.75 -9.84375 0.640625 -9.914062 0.609375 -9.9375 C 0.609375 -9.96875 0.679688 -10.019531 0.828125 -10.09375 C 0.972656 -10.164062 1.140625 -10.273438 1.328125 -10.421875 C 1.523438 -10.566406 1.722656 -10.753906 1.921875 -10.984375 C 2.390625 -11.578125 2.625 -12.441406 2.625 -13.578125 C 2.625 -18.722656 4.882812 -21.296875 9.40625 -21.296875 C 11.539062 -21.296875 13.160156 -20.601562 14.265625 -19.21875 C 15.222656 -18.03125 15.703125 -16.304688 15.703125 -14.046875 C 15.703125 -12.640625 15.742188 -11.75 15.828125 -11.375 C 15.921875 -11.007812 16.046875 -10.695312 16.203125 -10.4375 C 16.367188 -10.175781 16.472656 -10.003906 16.515625 -9.921875 C 16.085938 -9.429688 15.625 -9.1875 15.125 -9.1875 C 14.957031 -9.1875 14.796875 -9.21875 14.640625 -9.28125 C 13.773438 -9.738281 12.613281 -9.96875 11.15625 -9.96875 C 9.695312 -9.96875 8.691406 -9.863281 8.140625 -9.65625 C 7.691406 -9.082031 7.46875 -8.039062 7.46875 -6.53125 C 7.46875 -5.03125 7.738281 -3.863281 8.28125 -3.03125 C 8.832031 -2.207031 9.625 -1.796875 10.65625 -1.796875 C 11.695312 -1.796875 12.441406 -2.1875 12.890625 -2.96875 C 13.347656 -3.75 13.578125 -4.929688 13.578125 -6.515625 Z M 11.234375 -12.6875 L 11.265625 -14.765625 C 11.265625 -17.160156 10.726562 -18.359375 9.65625 -18.359375 C 8.925781 -18.359375 8.382812 -18.160156 8.03125 -17.765625 C 7.769531 -17.460938 7.628906 -17.019531 7.609375 -16.4375 C 7.585938 -15.851562 7.578125 -15.046875 7.578125 -14.015625 C 7.578125 -12.984375 7.691406 -12.1875 7.921875 -11.625 C 8.773438 -11.65625 9.539062 -11.769531 10.21875 -11.96875 C 10.894531 -12.175781 11.234375 -12.414062 11.234375 -12.6875 Z M 11.234375 -12.6875 "/></g></g></g><g fill="#ffffff" fill-opacity="1"><g transform="translate(54.018346, 34.582331)"><g/></g></g><g fill="#ffffff" fill-opacity="1"><g transform="translate(61.434583, 34.582331)"><g><path d="M 5.375 -0.90625 C 4.507812 0.25 3.625 0.828125 2.71875 0.828125 C 2.039062 0.828125 1.601562 0.734375 1.40625 0.546875 C 1.144531 0.296875 0.992188 0.0976562 0.953125 -0.046875 C 1.722656 -0.753906 2.253906 -1.5 2.546875 -2.28125 C 2.847656 -3.0625 3 -3.972656 3 -5.015625 C 3 -6.054688 2.957031 -6.828125 2.875 -7.328125 C 2.800781 -7.835938 2.6875 -8.242188 2.53125 -8.546875 C 2.375 -8.859375 2.238281 -9.09375 2.125 -9.25 C 2.007812 -9.40625 1.859375 -9.550781 1.671875 -9.6875 C 1.492188 -9.820312 1.398438 -9.894531 1.390625 -9.90625 C 1.390625 -9.9375 1.441406 -10 1.546875 -10.09375 C 1.660156 -10.1875 1.796875 -10.328125 1.953125 -10.515625 C 2.117188 -10.703125 2.28125 -10.941406 2.4375 -11.234375 C 2.8125 -11.953125 3 -13.03125 3 -14.46875 C 3 -15.90625 2.835938 -17.019531 2.515625 -17.8125 C 2.191406 -18.613281 1.609375 -19.367188 0.765625 -20.078125 C 1.046875 -20.640625 1.765625 -20.921875 2.921875 -20.921875 C 3.828125 -20.921875 4.757812 -20.351562 5.71875 -19.21875 C 5.9375 -18.957031 6.148438 -18.648438 6.359375 -18.296875 C 7.304688 -20.296875 8.878906 -21.296875 11.078125 -21.296875 C 13.285156 -21.296875 14.835938 -20.351562 15.734375 -18.46875 C 16.273438 -19.4375 16.984375 -20.148438 17.859375 -20.609375 C 18.734375 -21.066406 19.601562 -21.296875 20.46875 -21.296875 C 21.332031 -21.296875 22.097656 -21.179688 22.765625 -20.953125 C 23.441406 -20.734375 24.054688 -20.378906 24.609375 -19.890625 C 25.816406 -18.835938 26.421875 -17.15625 26.421875 -14.84375 C 26.421875 -12.488281 26.835938 -10.914062 27.671875 -10.125 C 27.765625 -10.039062 27.8125 -9.972656 27.8125 -9.921875 C 27.8125 -9.878906 27.757812 -9.816406 27.65625 -9.734375 C 27.5625 -9.660156 27.445312 -9.535156 27.3125 -9.359375 C 27.175781 -9.191406 27.046875 -8.96875 26.921875 -8.6875 C 26.585938 -8 26.421875 -6.953125 26.421875 -5.546875 C 26.421875 -4.140625 26.566406 -3.046875 26.859375 -2.265625 C 27.148438 -1.492188 27.675781 -0.753906 28.4375 -0.046875 C 28.144531 0.535156 27.535156 0.828125 26.609375 0.828125 C 25.679688 0.828125 24.820312 0.25 24.03125 -0.90625 C 23.476562 -0.175781 22.804688 0.34375 22.015625 0.65625 C 21.691406 0.769531 21.421875 0.828125 21.203125 0.828125 C 20.992188 0.828125 20.847656 0.816406 20.765625 0.796875 C 20.691406 0.773438 20.628906 0.75 20.578125 0.71875 C 20.523438 0.695312 20.472656 0.65625 20.421875 0.59375 C 20.378906 0.539062 20.347656 0.492188 20.328125 0.453125 C 20.304688 0.421875 20.28125 0.375 20.25 0.3125 C 20.226562 0.25 20.210938 0.203125 20.203125 0.171875 C 20.203125 0.140625 20.179688 0.0664062 20.140625 -0.046875 C 20.648438 -0.753906 21.007812 -1.519531 21.21875 -2.34375 C 21.425781 -3.175781 21.53125 -4.113281 21.53125 -5.15625 C 21.53125 -6.207031 21.488281 -6.988281 21.40625 -7.5 C 21.332031 -8.019531 21.238281 -8.414062 21.125 -8.6875 C 21.019531 -8.96875 20.914062 -9.191406 20.8125 -9.359375 C 20.707031 -9.535156 20.613281 -9.664062 20.53125 -9.75 C 20.457031 -9.832031 20.421875 -9.882812 20.421875 -9.90625 C 20.421875 -9.96875 20.476562 -10.066406 20.59375 -10.203125 C 20.707031 -10.335938 20.832031 -10.515625 20.96875 -10.734375 C 21.34375 -11.296875 21.53125 -12.535156 21.53125 -14.453125 C 21.53125 -17.253906 20.835938 -18.65625 19.453125 -18.65625 C 18.078125 -18.65625 17.269531 -17.4375 17.03125 -15 C 17.03125 -12.457031 17.457031 -10.832031 18.3125 -10.125 C 18.40625 -10.039062 18.453125 -9.972656 18.453125 -9.921875 C 18.453125 -9.878906 18.40625 -9.816406 18.3125 -9.734375 C 18.21875 -9.660156 18.101562 -9.535156 17.96875 -9.359375 C 17.832031 -9.191406 17.695312 -8.96875 17.5625 -8.6875 C 17.226562 -8 17.0625 -6.945312 17.0625 -5.53125 C 17.0625 -4.125 17.203125 -3.03125 17.484375 -2.25 C 17.773438 -1.476562 18.3125 -0.742188 19.09375 -0.046875 C 18.800781 0.535156 18.21875 0.828125 17.34375 0.828125 C 16.757812 0.828125 16.285156 0.679688 15.921875 0.390625 C 15.347656 -0.078125 14.925781 -0.507812 14.65625 -0.90625 C 13.789062 0.25 12.859375 0.828125 11.859375 0.828125 C 11.179688 0.828125 10.773438 0.535156 10.640625 -0.046875 C 11.265625 -0.753906 11.703125 -1.519531 11.953125 -2.34375 C 12.210938 -3.175781 12.34375 -4.113281 12.34375 -5.15625 C 12.34375 -6.195312 12.289062 -6.972656 12.1875 -7.484375 C 12.09375 -8.003906 11.972656 -8.398438 11.828125 -8.671875 C 11.691406 -8.953125 11.554688 -9.179688 11.421875 -9.359375 C 11.285156 -9.535156 11.164062 -9.664062 11.0625 -9.75 C 10.96875 -9.832031 10.921875 -9.890625 10.921875 -9.921875 C 10.921875 -9.960938 10.96875 -10.023438 11.0625 -10.109375 C 11.164062 -10.203125 11.285156 -10.328125 11.421875 -10.484375 C 11.554688 -10.648438 11.691406 -10.875 11.828125 -11.15625 C 12.171875 -11.820312 12.34375 -12.921875 12.34375 -14.453125 C 12.34375 -17.253906 11.617188 -18.65625 10.171875 -18.65625 C 9.429688 -18.65625 8.859375 -18.300781 8.453125 -17.59375 C 8.046875 -16.894531 7.84375 -15.953125 7.84375 -14.765625 C 7.84375 -13.585938 7.898438 -12.675781 8.015625 -12.03125 C 8.128906 -11.382812 8.253906 -10.953125 8.390625 -10.734375 C 8.535156 -10.515625 8.664062 -10.335938 8.78125 -10.203125 C 8.894531 -10.066406 8.953125 -9.972656 8.953125 -9.921875 C 8.953125 -9.878906 8.910156 -9.8125 8.828125 -9.71875 C 8.753906 -9.632812 8.664062 -9.5 8.5625 -9.3125 C 8.457031 -9.132812 8.351562 -8.898438 8.25 -8.609375 C 8 -7.898438 7.875 -6.859375 7.875 -5.484375 C 7.875 -4.117188 8 -3.046875 8.25 -2.265625 C 8.5 -1.492188 8.941406 -0.753906 9.578125 -0.046875 C 9.503906 0.191406 9.351562 0.394531 9.125 0.5625 C 8.90625 0.738281 8.648438 0.828125 8.359375 0.828125 C 7.265625 0.828125 6.269531 0.25 5.375 -0.90625 Z M 5.375 -0.90625 "/></g></g></g><g fill="#ffffff" fill-opacity="1"><g transform="translate(90.742512, 34.582331)"><g><path d="M 2.515625 -21.265625 C 3.453125 -21.265625 4.265625 -20.847656 4.953125 -20.015625 C 5.285156 -20.515625 5.820312 -20.890625 6.5625 -21.140625 C 6.832031 -21.222656 7.109375 -21.265625 7.390625 -21.265625 C 7.671875 -21.265625 7.910156 -21.234375 8.109375 -21.171875 C 8.316406 -21.117188 8.472656 -21.046875 8.578125 -20.953125 C 8.785156 -20.785156 8.910156 -20.597656 8.953125 -20.390625 C 8.265625 -19.734375 7.789062 -19.039062 7.53125 -18.3125 C 7.28125 -17.582031 7.15625 -16.628906 7.15625 -15.453125 C 7.15625 -14.273438 7.207031 -13.347656 7.3125 -12.671875 C 7.425781 -11.992188 7.5625 -11.503906 7.71875 -11.203125 C 7.882812 -10.910156 8.046875 -10.6875 8.203125 -10.53125 C 8.359375 -10.382812 8.488281 -10.269531 8.59375 -10.1875 C 8.707031 -10.101562 8.765625 -10.019531 8.765625 -9.9375 C 8.765625 -9.863281 8.707031 -9.785156 8.59375 -9.703125 C 8.488281 -9.617188 8.359375 -9.488281 8.203125 -9.3125 C 8.046875 -9.144531 7.890625 -8.914062 7.734375 -8.625 C 7.347656 -7.9375 7.15625 -6.859375 7.15625 -5.390625 C 7.15625 -3.921875 7.285156 -2.8125 7.546875 -2.0625 C 7.804688 -1.320312 8.273438 -0.648438 8.953125 -0.046875 C 8.953125 0.296875 8.675781 0.554688 8.125 0.734375 C 7.914062 0.796875 7.625 0.828125 7.25 0.828125 C 6.882812 0.828125 6.5 0.71875 6.09375 0.5 C 5.6875 0.289062 5.398438 0.0859375 5.234375 -0.109375 L 4.953125 -0.421875 C 4.617188 0.078125 4.082031 0.445312 3.34375 0.6875 C 3.070312 0.78125 2.753906 0.828125 2.390625 0.828125 C 2.035156 0.828125 1.726562 0.753906 1.46875 0.609375 C 1.21875 0.460938 1.066406 0.3125 1.015625 0.15625 L 0.953125 -0.046875 C 1.628906 -0.648438 2.097656 -1.320312 2.359375 -2.0625 C 2.617188 -2.8125 2.75 -3.710938 2.75 -4.765625 C 2.75 -5.828125 2.691406 -6.660156 2.578125 -7.265625 C 2.472656 -7.878906 2.34375 -8.332031 2.1875 -8.625 C 2.03125 -8.914062 1.867188 -9.144531 1.703125 -9.3125 C 1.546875 -9.488281 1.410156 -9.617188 1.296875 -9.703125 C 1.191406 -9.785156 1.140625 -9.863281 1.140625 -9.9375 C 1.140625 -10.019531 1.191406 -10.101562 1.296875 -10.1875 C 1.410156 -10.269531 1.546875 -10.382812 1.703125 -10.53125 C 1.867188 -10.6875 2.023438 -10.910156 2.171875 -11.203125 C 2.554688 -11.921875 2.75 -13.097656 2.75 -14.734375 C 2.75 -16.378906 2.617188 -17.566406 2.359375 -18.296875 C 2.109375 -19.023438 1.640625 -19.722656 0.953125 -20.390625 C 0.953125 -20.734375 1.226562 -20.992188 1.78125 -21.171875 C 1.988281 -21.234375 2.234375 -21.265625 2.515625 -21.265625 Z M 4.921875 -28.484375 L 8.328125 -25.484375 L 4.90625 -22.40625 L 4.046875 -23.15625 C 3.472656 -23.632812 2.90625 -24.125 2.34375 -24.625 L 1.484375 -25.375 C 1.484375 -25.4375 2.03125 -25.96875 3.125 -26.96875 C 4.21875 -27.976562 4.816406 -28.484375 4.921875 -28.484375 Z M 4.921875 -28.484375 "/></g></g></g><g fill="#ffffff" fill-opacity="1"><g transform="translate(100.722787, 34.582331)"><g><path d="M 1.359375 -4.34375 L 1.546875 -6.265625 C 1.546875 -6.953125 1.316406 -7.546875 0.859375 -8.046875 C 1.023438 -8.203125 1.207031 -8.28125 1.40625 -8.28125 C 1.613281 -8.28125 1.828125 -8.25 2.046875 -8.1875 C 2.273438 -8.125 2.519531 -7.992188 2.78125 -7.796875 C 3.039062 -7.609375 3.242188 -7.410156 3.390625 -7.203125 C 3.546875 -7.003906 3.671875 -6.796875 3.765625 -6.578125 C 3.953125 -6.191406 4.046875 -5.9375 4.046875 -5.8125 C 4.679688 -6.320312 5.226562 -6.578125 5.6875 -6.578125 C 6.144531 -6.578125 6.484375 -6.53125 6.703125 -6.4375 C 6.921875 -6.351562 7.070312 -6.242188 7.15625 -6.109375 C 7.3125 -5.878906 7.390625 -5.691406 7.390625 -5.546875 L 7.390625 -5.5 C 6.921875 -5.40625 6.519531 -5.203125 6.1875 -4.890625 C 5.851562 -4.585938 5.6875 -4.144531 5.6875 -3.5625 C 5.6875 -2.976562 5.894531 -2.523438 6.3125 -2.203125 C 6.726562 -1.890625 7.210938 -1.734375 7.765625 -1.734375 C 8.316406 -1.734375 8.757812 -1.8125 9.09375 -1.96875 C 9.4375 -2.125 9.695312 -2.328125 9.875 -2.578125 C 10.207031 -3.066406 10.375 -3.546875 10.375 -4.015625 C 10.375 -5.171875 10.0625 -6.09375 9.4375 -6.78125 C 8.8125 -7.46875 8.097656 -7.8125 7.296875 -7.8125 C 7.015625 -7.8125 6.691406 -7.765625 6.328125 -7.671875 C 5.972656 -7.585938 5.773438 -7.546875 5.734375 -7.546875 C 5.703125 -7.546875 5.648438 -7.5625 5.578125 -7.59375 C 5.503906 -7.632812 5.429688 -7.773438 5.359375 -8.015625 C 5.117188 -8.773438 4.710938 -9.390625 4.140625 -9.859375 C 2.304688 -11.148438 1.390625 -12.828125 1.390625 -14.890625 C 1.390625 -16.953125 2.003906 -18.53125 3.234375 -19.625 C 4.460938 -20.726562 6.128906 -21.28125 8.234375 -21.28125 C 9.296875 -21.28125 10.222656 -21.109375 11.015625 -20.765625 C 11.816406 -20.429688 12.445312 -20.078125 12.90625 -19.703125 C 13.945312 -18.859375 14.46875 -17.707031 14.46875 -16.25 L 14.09375 -14.15625 C 14.09375 -13.570312 14.328125 -13.039062 14.796875 -12.5625 C 14.640625 -12.425781 14.410156 -12.359375 14.109375 -12.359375 C 13.804688 -12.359375 13.515625 -12.4375 13.234375 -12.59375 C 12.953125 -12.75 12.71875 -12.929688 12.53125 -13.140625 C 12.34375 -13.359375 12.179688 -13.585938 12.046875 -13.828125 C 11.785156 -14.253906 11.65625 -14.53125 11.65625 -14.65625 C 10.976562 -14.207031 10.425781 -13.984375 10 -13.984375 C 9.582031 -13.984375 9.269531 -14.019531 9.0625 -14.09375 C 8.863281 -14.175781 8.722656 -14.285156 8.640625 -14.421875 C 8.503906 -14.628906 8.4375 -14.820312 8.4375 -15 C 9.0625 -15.070312 9.582031 -15.257812 10 -15.5625 C 10.414062 -15.875 10.625 -16.285156 10.625 -16.796875 C 10.625 -17.316406 10.425781 -17.703125 10.03125 -17.953125 C 9.632812 -18.203125 9.140625 -18.328125 8.546875 -18.328125 C 7.097656 -18.328125 6.375 -17.507812 6.375 -15.875 C 6.375 -14.238281 6.988281 -13.148438 8.21875 -12.609375 C 8.332031 -12.554688 8.507812 -12.53125 8.75 -12.53125 C 9 -12.53125 9.351562 -12.570312 9.8125 -12.65625 C 10.28125 -12.75 10.550781 -12.796875 10.625 -12.796875 C 10.695312 -12.796875 10.769531 -12.664062 10.84375 -12.40625 C 11.125 -11.5625 11.5 -11.003906 11.96875 -10.734375 C 12.976562 -9.984375 13.75 -9.097656 14.28125 -8.078125 C 14.820312 -7.066406 15.09375 -6.09375 15.09375 -5.15625 C 15.09375 -4.21875 14.9375 -3.382812 14.625 -2.65625 C 14.320312 -1.9375 13.875 -1.289062 13.28125 -0.71875 C 12 0.519531 10.171875 1.140625 7.796875 1.140625 C 6.347656 1.140625 4.941406 0.671875 3.578125 -0.265625 C 2.929688 -0.691406 2.398438 -1.265625 1.984375 -1.984375 C 1.566406 -2.703125 1.359375 -3.488281 1.359375 -4.34375 Z M 1.359375 -4.34375 "/></g></g></g><g fill="#ffffff" fill-opacity="1"><g transform="translate(116.723683, 34.582331)"><g><path d="M 1.359375 -4.34375 L 1.546875 -6.265625 C 1.546875 -6.953125 1.316406 -7.546875 0.859375 -8.046875 C 1.023438 -8.203125 1.207031 -8.28125 1.40625 -8.28125 C 1.613281 -8.28125 1.828125 -8.25 2.046875 -8.1875 C 2.273438 -8.125 2.519531 -7.992188 2.78125 -7.796875 C 3.039062 -7.609375 3.242188 -7.410156 3.390625 -7.203125 C 3.546875 -7.003906 3.671875 -6.796875 3.765625 -6.578125 C 3.953125 -6.191406 4.046875 -5.9375 4.046875 -5.8125 C 4.679688 -6.320312 5.226562 -6.578125 5.6875 -6.578125 C 6.144531 -6.578125 6.484375 -6.53125 6.703125 -6.4375 C 6.921875 -6.351562 7.070312 -6.242188 7.15625 -6.109375 C 7.3125 -5.878906 7.390625 -5.691406 7.390625 -5.546875 L 7.390625 -5.5 C 6.921875 -5.40625 6.519531 -5.203125 6.1875 -4.890625 C 5.851562 -4.585938 5.6875 -4.144531 5.6875 -3.5625 C 5.6875 -2.976562 5.894531 -2.523438 6.3125 -2.203125 C 6.726562 -1.890625 7.210938 -1.734375 7.765625 -1.734375 C 8.316406 -1.734375 8.757812 -1.8125 9.09375 -1.96875 C 9.4375 -2.125 9.695312 -2.328125 9.875 -2.578125 C 10.207031 -3.066406 10.375 -3.546875 10.375 -4.015625 C 10.375 -5.171875 10.0625 -6.09375 9.4375 -6.78125 C 8.8125 -7.46875 8.097656 -7.8125 7.296875 -7.8125 C 7.015625 -7.8125 6.691406 -7.765625 6.328125 -7.671875 C 5.972656 -7.585938 5.773438 -7.546875 5.734375 -7.546875 C 5.703125 -7.546875 5.648438 -7.5625 5.578125 -7.59375 C 5.503906 -7.632812 5.429688 -7.773438 5.359375 -8.015625 C 5.117188 -8.773438 4.710938 -9.390625 4.140625 -9.859375 C 2.304688 -11.148438 1.390625 -12.828125 1.390625 -14.890625 C 1.390625 -16.953125 2.003906 -18.53125 3.234375 -19.625 C 4.460938 -20.726562 6.128906 -21.28125 8.234375 -21.28125 C 9.296875 -21.28125 10.222656 -21.109375 11.015625 -20.765625 C 11.816406 -20.429688 12.445312 -20.078125 12.90625 -19.703125 C 13.945312 -18.859375 14.46875 -17.707031 14.46875 -16.25 L 14.09375 -14.15625 C 14.09375 -13.570312 14.328125 -13.039062 14.796875 -12.5625 C 14.640625 -12.425781 14.410156 -12.359375 14.109375 -12.359375 C 13.804688 -12.359375 13.515625 -12.4375 13.234375 -12.59375 C 12.953125 -12.75 12.71875 -12.929688 12.53125 -13.140625 C 12.34375 -13.359375 12.179688 -13.585938 12.046875 -13.828125 C 11.785156 -14.253906 11.65625 -14.53125 11.65625 -14.65625 C 10.976562 -14.207031 10.425781 -13.984375 10 -13.984375 C 9.582031 -13.984375 9.269531 -14.019531 9.0625 -14.09375 C 8.863281 -14.175781 8.722656 -14.285156 8.640625 -14.421875 C 8.503906 -14.628906 8.4375 -14.820312 8.4375 -15 C 9.0625 -15.070312 9.582031 -15.257812 10 -15.5625 C 10.414062 -15.875 10.625 -16.285156 10.625 -16.796875 C 10.625 -17.316406 10.425781 -17.703125 10.03125 -17.953125 C 9.632812 -18.203125 9.140625 -18.328125 8.546875 -18.328125 C 7.097656 -18.328125 6.375 -17.507812 6.375 -15.875 C 6.375 -14.238281 6.988281 -13.148438 8.21875 -12.609375 C 8.332031 -12.554688 8.507812 -12.53125 8.75 -12.53125 C 9 -12.53125 9.351562 -12.570312 9.8125 -12.65625 C 10.28125 -12.75 10.550781 -12.796875 10.625 -12.796875 C 10.695312 -12.796875 10.769531 -12.664062 10.84375 -12.40625 C 11.125 -11.5625 11.5 -11.003906 11.96875 -10.734375 C 12.976562 -9.984375 13.75 -9.097656 14.28125 -8.078125 C 14.820312 -7.066406 15.09375 -6.09375 15.09375 -5.15625 C 15.09375 -4.21875 14.9375 -3.382812 14.625 -2.65625 C 14.320312 -1.9375 13.875 -1.289062 13.28125 -0.71875 C 12 0.519531 10.171875 1.140625 7.796875 1.140625 C 6.347656 1.140625 4.941406 0.671875 3.578125 -0.265625 C 2.929688 -0.691406 2.398438 -1.265625 1.984375 -1.984375 C 1.566406 -2.703125 1.359375 -3.488281 1.359375 -4.34375 Z M 1.359375 -4.34375 "/></g></g></g><g fill="#ffffff" fill-opacity="1"><g transform="translate(132.724578, 34.582331)"><g><path d="M 2.515625 -21.265625 C 3.453125 -21.265625 4.265625 -20.847656 4.953125 -20.015625 C 5.285156 -20.515625 5.820312 -20.890625 6.5625 -21.140625 C 6.832031 -21.222656 7.109375 -21.265625 7.390625 -21.265625 C 7.671875 -21.265625 7.910156 -21.234375 8.109375 -21.171875 C 8.316406 -21.117188 8.472656 -21.046875 8.578125 -20.953125 C 8.785156 -20.785156 8.910156 -20.597656 8.953125 -20.390625 C 8.265625 -19.734375 7.789062 -19.039062 7.53125 -18.3125 C 7.28125 -17.582031 7.15625 -16.628906 7.15625 -15.453125 C 7.15625 -14.273438 7.207031 -13.347656 7.3125 -12.671875 C 7.425781 -11.992188 7.5625 -11.503906 7.71875 -11.203125 C 7.882812 -10.910156 8.046875 -10.6875 8.203125 -10.53125 C 8.359375 -10.382812 8.488281 -10.269531 8.59375 -10.1875 C 8.707031 -10.101562 8.765625 -10.019531 8.765625 -9.9375 C 8.765625 -9.863281 8.707031 -9.785156 8.59375 -9.703125 C 8.488281 -9.617188 8.359375 -9.488281 8.203125 -9.3125 C 8.046875 -9.144531 7.890625 -8.914062 7.734375 -8.625 C 7.347656 -7.9375 7.15625 -6.859375 7.15625 -5.390625 C 7.15625 -3.921875 7.285156 -2.8125 7.546875 -2.0625 C 7.804688 -1.320312 8.273438 -0.648438 8.953125 -0.046875 C 8.953125 0.296875 8.675781 0.554688 8.125 0.734375 C 7.914062 0.796875 7.625 0.828125 7.25 0.828125 C 6.882812 0.828125 6.5 0.71875 6.09375 0.5 C 5.6875 0.289062 5.398438 0.0859375 5.234375 -0.109375 L 4.953125 -0.421875 C 4.617188 0.078125 4.082031 0.445312 3.34375 0.6875 C 3.070312 0.78125 2.753906 0.828125 2.390625 0.828125 C 2.035156 0.828125 1.726562 0.753906 1.46875 0.609375 C 1.21875 0.460938 1.066406 0.3125 1.015625 0.15625 L 0.953125 -0.046875 C 1.628906 -0.648438 2.097656 -1.320312 2.359375 -2.0625 C 2.617188 -2.8125 2.75 -3.710938 2.75 -4.765625 C 2.75 -5.828125 2.691406 -6.660156 2.578125 -7.265625 C 2.472656 -7.878906 2.34375 -8.332031 2.1875 -8.625 C 2.03125 -8.914062 1.867188 -9.144531 1.703125 -9.3125 C 1.546875 -9.488281 1.410156 -9.617188 1.296875 -9.703125 C 1.191406 -9.785156 1.140625 -9.863281 1.140625 -9.9375 C 1.140625 -10.019531 1.191406 -10.101562 1.296875 -10.1875 C 1.410156 -10.269531 1.546875 -10.382812 1.703125 -10.53125 C 1.867188 -10.6875 2.023438 -10.910156 2.171875 -11.203125 C 2.554688 -11.921875 2.75 -13.097656 2.75 -14.734375 C 2.75 -16.378906 2.617188 -17.566406 2.359375 -18.296875 C 2.109375 -19.023438 1.640625 -19.722656 0.953125 -20.390625 C 0.953125 -20.734375 1.226562 -20.992188 1.78125 -21.171875 C 1.988281 -21.234375 2.234375 -21.265625 2.515625 -21.265625 Z M 4.921875 -28.484375 L 8.328125 -25.484375 L 4.90625 -22.40625 L 4.046875 -23.15625 C 3.472656 -23.632812 2.90625 -24.125 2.34375 -24.625 L 1.484375 -25.375 C 1.484375 -25.4375 2.03125 -25.96875 3.125 -26.96875 C 4.21875 -27.976562 4.816406 -28.484375 4.921875 -28.484375 Z M 4.921875 -28.484375 "/></g></g></g><g fill="#ffffff" fill-opacity="1"><g transform="translate(142.704853, 34.582331)"><g><path d="M 6.25 -18.484375 C 7.988281 -20.359375 9.75 -21.296875 11.53125 -21.296875 C 13.320312 -21.296875 14.769531 -20.703125 15.875 -19.515625 C 16.976562 -18.335938 17.53125 -16.671875 17.53125 -14.515625 C 17.53125 -13.503906 17.601562 -12.65625 17.75 -11.96875 C 17.894531 -11.289062 18.050781 -10.835938 18.21875 -10.609375 C 18.394531 -10.390625 18.554688 -10.207031 18.703125 -10.0625 C 18.859375 -9.914062 18.9375 -9.816406 18.9375 -9.765625 C 18.9375 -9.710938 18.882812 -9.648438 18.78125 -9.578125 C 18.6875 -9.515625 18.570312 -9.398438 18.4375 -9.234375 C 18.300781 -9.066406 18.160156 -8.847656 18.015625 -8.578125 C 17.691406 -7.910156 17.53125 -6.882812 17.53125 -5.5 C 17.53125 -4.125 17.675781 -3.046875 17.96875 -2.265625 C 18.257812 -1.492188 18.789062 -0.753906 19.5625 -0.046875 C 19.269531 0.535156 18.628906 0.828125 17.640625 0.828125 C 16.660156 0.828125 15.722656 0.25 14.828125 -0.90625 C 13.960938 0.25 13.125 0.828125 12.3125 0.828125 C 11.507812 0.828125 11.03125 0.535156 10.875 -0.046875 C 11.507812 -0.773438 11.960938 -1.550781 12.234375 -2.375 C 12.503906 -3.207031 12.640625 -4.140625 12.640625 -5.171875 C 12.640625 -6.203125 12.585938 -6.976562 12.484375 -7.5 C 12.378906 -8.019531 12.25 -8.414062 12.09375 -8.6875 C 11.9375 -8.96875 11.773438 -9.191406 11.609375 -9.359375 C 11.453125 -9.535156 11.320312 -9.664062 11.21875 -9.75 C 11.113281 -9.832031 11.0625 -9.890625 11.0625 -9.921875 C 11.0625 -9.960938 11.144531 -10.070312 11.3125 -10.25 C 11.476562 -10.4375 11.65625 -10.660156 11.84375 -10.921875 C 12.039062 -11.191406 12.222656 -11.644531 12.390625 -12.28125 C 12.554688 -12.925781 12.640625 -13.671875 12.640625 -14.515625 C 12.640625 -17.265625 12.003906 -18.640625 10.734375 -18.640625 C 9.921875 -18.640625 9.25 -18.269531 8.71875 -17.53125 C 8.1875 -16.800781 7.921875 -15.695312 7.921875 -14.21875 C 7.921875 -13.375 7.992188 -12.648438 8.140625 -12.046875 C 8.285156 -11.441406 8.445312 -11.019531 8.625 -10.78125 C 8.800781 -10.550781 8.960938 -10.359375 9.109375 -10.203125 C 9.253906 -10.054688 9.328125 -9.960938 9.328125 -9.921875 C 9.328125 -9.878906 9.28125 -9.8125 9.1875 -9.71875 C 9.09375 -9.632812 8.976562 -9.5 8.84375 -9.3125 C 8.707031 -9.125 8.570312 -8.890625 8.4375 -8.609375 C 8.113281 -7.878906 7.953125 -6.832031 7.953125 -5.46875 C 7.953125 -4.113281 8.097656 -3.046875 8.390625 -2.265625 C 8.679688 -1.492188 9.210938 -0.753906 9.984375 -0.046875 C 9.910156 0.171875 9.722656 0.367188 9.421875 0.546875 C 9.128906 0.734375 8.796875 0.828125 8.421875 0.828125 C 7.335938 0.828125 6.320312 0.25 5.375 -0.90625 C 4.507812 0.25 3.625 0.828125 2.71875 0.828125 C 2.28125 0.828125 1.921875 0.765625 1.640625 0.640625 C 1.273438 0.460938 1.046875 0.234375 0.953125 -0.046875 C 1.710938 -0.753906 2.242188 -1.5 2.546875 -2.28125 C 2.847656 -3.070312 3 -3.984375 3 -5.015625 C 3 -6.054688 2.957031 -6.828125 2.875 -7.328125 C 2.800781 -7.828125 2.6875 -8.226562 2.53125 -8.53125 C 2.375 -8.84375 2.238281 -9.078125 2.125 -9.234375 C 2.007812 -9.390625 1.859375 -9.535156 1.671875 -9.671875 C 1.484375 -9.816406 1.382812 -9.894531 1.375 -9.90625 C 1.375 -9.9375 1.429688 -9.992188 1.546875 -10.078125 C 1.660156 -10.160156 1.796875 -10.285156 1.953125 -10.453125 C 2.109375 -10.628906 2.269531 -10.859375 2.4375 -11.140625 C 2.8125 -11.804688 3 -12.847656 3 -14.265625 C 3 -15.679688 2.835938 -16.8125 2.515625 -17.65625 C 2.191406 -18.507812 1.609375 -19.316406 0.765625 -20.078125 C 1.046875 -20.640625 1.796875 -20.921875 3.015625 -20.921875 C 4.234375 -20.921875 5.3125 -20.109375 6.25 -18.484375 Z M 6.25 -18.484375 "/></g></g></g><g fill="#ffffff" fill-opacity="1"><g transform="translate(163.136017, 34.582331)"><g><path d="M 12.21875 -2.03125 C 11.195312 -0.894531 10.066406 -0.328125 8.828125 -0.328125 C 7.585938 -0.328125 6.472656 -0.550781 5.484375 -1 C 4.492188 -1.457031 3.675781 -2.148438 3.03125 -3.078125 C 2.382812 -4.015625 2.0625 -5.09375 2.0625 -6.3125 C 2.0625 -7.050781 1.988281 -7.675781 1.84375 -8.1875 C 1.695312 -8.707031 1.535156 -9.054688 1.359375 -9.234375 C 1.179688 -9.421875 1.019531 -9.570312 0.875 -9.6875 C 0.726562 -9.8125 0.65625 -9.898438 0.65625 -9.953125 C 0.65625 -10.003906 0.726562 -10.101562 0.875 -10.25 C 1.019531 -10.394531 1.179688 -10.582031 1.359375 -10.8125 C 1.535156 -11.050781 1.695312 -11.507812 1.84375 -12.1875 C 1.988281 -12.863281 2.0625 -13.742188 2.0625 -14.828125 C 2.0625 -15.910156 2.25 -16.882812 2.625 -17.75 C 3 -18.625 3.507812 -19.3125 4.15625 -19.8125 C 5.425781 -20.789062 6.992188 -21.28125 8.859375 -21.28125 C 9.710938 -21.28125 10.601562 -21.070312 11.53125 -20.65625 C 12.457031 -20.25 13.242188 -19.726562 13.890625 -19.09375 C 14.359375 -19.875 14.945312 -20.421875 15.65625 -20.734375 C 15.9375 -20.859375 16.285156 -20.921875 16.703125 -20.921875 C 17.117188 -20.921875 17.5 -20.863281 17.84375 -20.75 C 18.34375 -20.570312 18.617188 -20.347656 18.671875 -20.078125 C 17.828125 -19.347656 17.242188 -18.578125 16.921875 -17.765625 C 16.609375 -16.960938 16.453125 -16.003906 16.453125 -14.890625 C 16.453125 -13.773438 16.503906 -12.941406 16.609375 -12.390625 C 16.710938 -11.847656 16.84375 -11.4375 17 -11.15625 C 17.15625 -10.882812 17.316406 -10.664062 17.484375 -10.5 C 17.648438 -10.332031 17.785156 -10.207031 17.890625 -10.125 C 17.992188 -10.039062 18.046875 -9.960938 18.046875 -9.890625 C 18.046875 -9.828125 17.960938 -9.644531 17.796875 -9.34375 C 17.628906 -9.039062 17.441406 -8.71875 17.234375 -8.375 C 16.710938 -7.46875 16.453125 -6.601562 16.453125 -5.78125 C 16.453125 -4.96875 16.441406 -4.28125 16.421875 -3.71875 C 16.410156 -3.15625 16.378906 -2.503906 16.328125 -1.765625 C 16.285156 -1.035156 16.222656 -0.40625 16.140625 0.125 C 16.054688 0.664062 15.929688 1.25 15.765625 1.875 C 15.609375 2.5 15.421875 3.03125 15.203125 3.46875 C 14.992188 3.90625 14.726562 4.335938 14.40625 4.765625 C 14.09375 5.203125 13.726562 5.550781 13.3125 5.8125 C 12.382812 6.394531 11.273438 6.6875 9.984375 6.6875 C 8.703125 6.6875 7.546875 6.378906 6.515625 5.765625 C 5.484375 5.148438 4.796875 4.25 4.453125 3.0625 C 4.253906 2.21875 4.046875 1.566406 3.828125 1.109375 C 3.609375 0.660156 3.3125 0.257812 2.9375 -0.09375 C 3.113281 -0.226562 3.375 -0.296875 3.71875 -0.296875 C 4.070312 -0.296875 4.414062 -0.234375 4.75 -0.109375 C 5.09375 0.00390625 5.363281 0.144531 5.5625 0.3125 C 5.757812 0.488281 5.929688 0.671875 6.078125 0.859375 C 6.347656 1.191406 6.484375 1.425781 6.484375 1.5625 C 6.484375 1.476562 6.628906 1.378906 6.921875 1.265625 C 7.347656 1.066406 7.710938 0.96875 8.015625 0.96875 C 8.316406 0.96875 8.597656 1.019531 8.859375 1.125 C 9.390625 1.3125 9.65625 1.484375 9.65625 1.640625 C 9.65625 1.660156 9.582031 1.675781 9.4375 1.6875 C 9.289062 1.695312 9.117188 1.773438 8.921875 1.921875 C 8.578125 2.191406 8.40625 2.59375 8.40625 3.125 C 8.40625 3.6875 8.710938 4.109375 9.328125 4.390625 C 9.609375 4.503906 9.890625 4.5625 10.171875 4.5625 C 10.460938 4.5625 10.722656 4.507812 10.953125 4.40625 C 11.191406 4.3125 11.414062 4.164062 11.625 3.96875 C 12.0625 3.507812 12.28125 2.800781 12.28125 1.84375 C 12.28125 1.394531 12.269531 0.738281 12.25 -0.125 C 12.226562 -0.988281 12.21875 -1.625 12.21875 -2.03125 Z M 10.65625 -9.8125 C 10.550781 -9.875 10.5 -9.925781 10.5 -9.96875 C 10.5 -10.007812 10.546875 -10.066406 10.640625 -10.140625 C 10.742188 -10.210938 10.863281 -10.328125 11 -10.484375 C 11.132812 -10.640625 11.269531 -10.847656 11.40625 -11.109375 C 11.75 -11.742188 11.921875 -12.804688 11.921875 -14.296875 C 11.921875 -16.992188 11.019531 -18.34375 9.21875 -18.34375 C 7.488281 -18.34375 6.625 -16.992188 6.625 -14.296875 C 6.625 -13.367188 6.695312 -12.59375 6.84375 -11.96875 C 7 -11.351562 7.160156 -10.941406 7.328125 -10.734375 C 7.503906 -10.523438 7.664062 -10.351562 7.8125 -10.21875 C 7.96875 -10.09375 8.046875 -10.007812 8.046875 -9.96875 C 8.046875 -9.925781 8 -9.867188 7.90625 -9.796875 C 7.8125 -9.722656 7.691406 -9.613281 7.546875 -9.46875 C 7.410156 -9.320312 7.269531 -9.140625 7.125 -8.921875 C 6.789062 -8.429688 6.625 -7.691406 6.625 -6.703125 C 6.625 -5.722656 6.882812 -4.953125 7.40625 -4.390625 C 7.9375 -3.835938 8.5625 -3.5625 9.28125 -3.5625 C 10 -3.5625 10.617188 -3.835938 11.140625 -4.390625 C 11.660156 -4.941406 11.921875 -5.710938 11.921875 -6.703125 C 11.921875 -8.148438 11.5 -9.1875 10.65625 -9.8125 Z M 10.65625 -9.8125 "/></g></g></g><g fill="#ffffff" fill-opacity="1"><g transform="translate(181.976829, 34.582331)"><g/></g></g><g fill="#ffffff" fill-opacity="1"><g transform="translate(189.393066, 34.582331)"><g><path d="M 1.359375 -4.34375 L 1.546875 -6.265625 C 1.546875 -6.953125 1.316406 -7.546875 0.859375 -8.046875 C 1.023438 -8.203125 1.207031 -8.28125 1.40625 -8.28125 C 1.613281 -8.28125 1.828125 -8.25 2.046875 -8.1875 C 2.273438 -8.125 2.519531 -7.992188 2.78125 -7.796875 C 3.039062 -7.609375 3.242188 -7.410156 3.390625 -7.203125 C 3.546875 -7.003906 3.671875 -6.796875 3.765625 -6.578125 C 3.953125 -6.191406 4.046875 -5.9375 4.046875 -5.8125 C 4.679688 -6.320312 5.226562 -6.578125 5.6875 -6.578125 C 6.144531 -6.578125 6.484375 -6.53125 6.703125 -6.4375 C 6.921875 -6.351562 7.070312 -6.242188 7.15625 -6.109375 C 7.3125 -5.878906 7.390625 -5.691406 7.390625 -5.546875 L 7.390625 -5.5 C 6.921875 -5.40625 6.519531 -5.203125 6.1875 -4.890625 C 5.851562 -4.585938 5.6875 -4.144531 5.6875 -3.5625 C 5.6875 -2.976562 5.894531 -2.523438 6.3125 -2.203125 C 6.726562 -1.890625 7.210938 -1.734375 7.765625 -1.734375 C 8.316406 -1.734375 8.757812 -1.8125 9.09375 -1.96875 C 9.4375 -2.125 9.695312 -2.328125 9.875 -2.578125 C 10.207031 -3.066406 10.375 -3.546875 10.375 -4.015625 C 10.375 -5.171875 10.0625 -6.09375 9.4375 -6.78125 C 8.8125 -7.46875 8.097656 -7.8125 7.296875 -7.8125 C 7.015625 -7.8125 6.691406 -7.765625 6.328125 -7.671875 C 5.972656 -7.585938 5.773438 -7.546875 5.734375 -7.546875 C 5.703125 -7.546875 5.648438 -7.5625 5.578125 -7.59375 C 5.503906 -7.632812 5.429688 -7.773438 5.359375 -8.015625 C 5.117188 -8.773438 4.710938 -9.390625 4.140625 -9.859375 C 2.304688 -11.148438 1.390625 -12.828125 1.390625 -14.890625 C 1.390625 -16.953125 2.003906 -18.53125 3.234375 -19.625 C 4.460938 -20.726562 6.128906 -21.28125 8.234375 -21.28125 C 9.296875 -21.28125 10.222656 -21.109375 11.015625 -20.765625 C 11.816406 -20.429688 12.445312 -20.078125 12.90625 -19.703125 C 13.945312 -18.859375 14.46875 -17.707031 14.46875 -16.25 L 14.09375 -14.15625 C 14.09375 -13.570312 14.328125 -13.039062 14.796875 -12.5625 C 14.640625 -12.425781 14.410156 -12.359375 14.109375 -12.359375 C 13.804688 -12.359375 13.515625 -12.4375 13.234375 -12.59375 C 12.953125 -12.75 12.71875 -12.929688 12.53125 -13.140625 C 12.34375 -13.359375 12.179688 -13.585938 12.046875 -13.828125 C 11.785156 -14.253906 11.65625 -14.53125 11.65625 -14.65625 C 10.976562 -14.207031 10.425781 -13.984375 10 -13.984375 C 9.582031 -13.984375 9.269531 -14.019531 9.0625 -14.09375 C 8.863281 -14.175781 8.722656 -14.285156 8.640625 -14.421875 C 8.503906 -14.628906 8.4375 -14.820312 8.4375 -15 C 9.0625 -15.070312 9.582031 -15.257812 10 -15.5625 C 10.414062 -15.875 10.625 -16.285156 10.625 -16.796875 C 10.625 -17.316406 10.425781 -17.703125 10.03125 -17.953125 C 9.632812 -18.203125 9.140625 -18.328125 8.546875 -18.328125 C 7.097656 -18.328125 6.375 -17.507812 6.375 -15.875 C 6.375 -14.238281 6.988281 -13.148438 8.21875 -12.609375 C 8.332031 -12.554688 8.507812 -12.53125 8.75 -12.53125 C 9 -12.53125 9.351562 -12.570312 9.8125 -12.65625 C 10.28125 -12.75 10.550781 -12.796875 10.625 -12.796875 C 10.695312 -12.796875 10.769531 -12.664062 10.84375 -12.40625 C 11.125 -11.5625 11.5 -11.003906 11.96875 -10.734375 C 12.976562 -9.984375 13.75 -9.097656 14.28125 -8.078125 C 14.820312 -7.066406 15.09375 -6.09375 15.09375 -5.15625 C 15.09375 -4.21875 14.9375 -3.382812 14.625 -2.65625 C 14.320312 -1.9375 13.875 -1.289062 13.28125 -0.71875 C 12 0.519531 10.171875 1.140625 7.796875 1.140625 C 6.347656 1.140625 4.941406 0.671875 3.578125 -0.265625 C 2.929688 -0.691406 2.398438 -1.265625 1.984375 -1.984375 C 1.566406 -2.703125 1.359375 -3.488281 1.359375 -4.34375 Z M 1.359375 -4.34375 "/></g></g></g><g fill="#ffffff" fill-opacity="1"><g transform="translate(205.393961, 34.582331)"><g><path d="M 6.25 -18.484375 C 7.988281 -20.359375 9.75 -21.296875 11.53125 -21.296875 C 13.320312 -21.296875 14.769531 -20.703125 15.875 -19.515625 C 16.976562 -18.335938 17.53125 -16.671875 17.53125 -14.515625 C 17.53125 -13.503906 17.601562 -12.65625 17.75 -11.96875 C 17.894531 -11.289062 18.050781 -10.835938 18.21875 -10.609375 C 18.394531 -10.390625 18.554688 -10.207031 18.703125 -10.0625 C 18.859375 -9.914062 18.9375 -9.816406 18.9375 -9.765625 C 18.9375 -9.710938 18.882812 -9.648438 18.78125 -9.578125 C 18.6875 -9.515625 18.570312 -9.398438 18.4375 -9.234375 C 18.300781 -9.066406 18.160156 -8.847656 18.015625 -8.578125 C 17.691406 -7.910156 17.53125 -6.882812 17.53125 -5.5 C 17.53125 -4.125 17.675781 -3.046875 17.96875 -2.265625 C 18.257812 -1.492188 18.789062 -0.753906 19.5625 -0.046875 C 19.269531 0.535156 18.628906 0.828125 17.640625 0.828125 C 16.660156 0.828125 15.722656 0.25 14.828125 -0.90625 C 13.960938 0.25 13.125 0.828125 12.3125 0.828125 C 11.507812 0.828125 11.03125 0.535156 10.875 -0.046875 C 11.507812 -0.773438 11.960938 -1.550781 12.234375 -2.375 C 12.503906 -3.207031 12.640625 -4.140625 12.640625 -5.171875 C 12.640625 -6.203125 12.585938 -6.976562 12.484375 -7.5 C 12.378906 -8.019531 12.25 -8.414062 12.09375 -8.6875 C 11.9375 -8.96875 11.773438 -9.191406 11.609375 -9.359375 C 11.453125 -9.535156 11.320312 -9.664062 11.21875 -9.75 C 11.113281 -9.832031 11.0625 -9.890625 11.0625 -9.921875 C 11.0625 -9.960938 11.144531 -10.070312 11.3125 -10.25 C 11.476562 -10.4375 11.65625 -10.660156 11.84375 -10.921875 C 12.039062 -11.191406 12.222656 -11.644531 12.390625 -12.28125 C 12.554688 -12.925781 12.640625 -13.671875 12.640625 -14.515625 C 12.640625 -17.265625 12.003906 -18.640625 10.734375 -18.640625 C 9.921875 -18.640625 9.25 -18.269531 8.71875 -17.53125 C 8.1875 -16.800781 7.921875 -15.695312 7.921875 -14.21875 C 7.921875 -13.375 7.992188 -12.648438 8.140625 -12.046875 C 8.285156 -11.441406 8.445312 -11.019531 8.625 -10.78125 C 8.800781 -10.550781 8.960938 -10.359375 9.109375 -10.203125 C 9.253906 -10.054688 9.328125 -9.960938 9.328125 -9.921875 C 9.328125 -9.878906 9.28125 -9.8125 9.1875 -9.71875 C 9.09375 -9.632812 8.976562 -9.5 8.84375 -9.3125 C 8.707031 -9.125 8.570312 -8.890625 8.4375 -8.609375 C 8.113281 -7.878906 7.953125 -6.832031 7.953125 -5.46875 C 7.953125 -4.113281 8.097656 -3.046875 8.390625 -2.265625 C 8.679688 -1.492188 9.210938 -0.753906 9.984375 -0.046875 C 9.910156 0.171875 9.722656 0.367188 9.421875 0.546875 C 9.128906 0.734375 8.796875 0.828125 8.421875 0.828125 C 7.335938 0.828125 6.320312 0.25 5.375 -0.90625 C 4.507812 0.25 3.625 0.828125 2.71875 0.828125 C 2.28125 0.828125 1.921875 0.765625 1.640625 0.640625 C 1.273438 0.460938 1.046875 0.234375 0.953125 -0.046875 C 1.710938 -0.753906 2.242188 -1.5 2.546875 -2.28125 C 2.847656 -3.070312 3 -3.984375 3 -5.015625 C 3 -6.054688 2.957031 -6.828125 2.875 -7.328125 C 2.800781 -7.828125 2.6875 -8.226562 2.53125 -8.53125 C 2.375 -8.84375 2.238281 -9.078125 2.125 -9.234375 C 2.007812 -9.390625 1.859375 -9.535156 1.671875 -9.671875 C 1.484375 -9.816406 1.382812 -9.894531 1.375 -9.90625 C 1.375 -9.9375 1.429688 -9.992188 1.546875 -10.078125 C 1.660156 -10.160156 1.796875 -10.285156 1.953125 -10.453125 C 2.109375 -10.628906 2.269531 -10.859375 2.4375 -11.140625 C 2.8125 -11.804688 3 -12.847656 3 -14.265625 C 3 -15.679688 2.835938 -16.8125 2.515625 -17.65625 C 2.191406 -18.507812 1.609375 -19.316406 0.765625 -20.078125 C 1.046875 -20.640625 1.796875 -20.921875 3.015625 -20.921875 C 4.234375 -20.921875 5.3125 -20.109375 6.25 -18.484375 Z M 6.25 -18.484375 "/></g></g></g><g fill="#ffffff" fill-opacity="1"><g transform="translate(225.825125, 34.582331)"><g><path d="M 11.890625 -1.734375 C 11.585938 -0.640625 10.992188 0.117188 10.109375 0.546875 C 9.703125 0.753906 9.285156 0.90625 8.859375 1 C 8.441406 1.09375 7.894531 1.140625 7.21875 1.140625 C 6.550781 1.140625 5.847656 1 5.109375 0.71875 C 4.660156 0.539062 4.257812 0.3125 3.90625 0.03125 C 3.550781 -0.25 3.226562 -0.640625 2.9375 -1.140625 C 2.644531 -1.648438 2.4375 -2.222656 2.3125 -2.859375 C 2.195312 -3.503906 1.835938 -4.195312 1.234375 -4.9375 C 1.035156 -5.164062 0.9375 -5.304688 0.9375 -5.359375 C 0.9375 -5.410156 1.128906 -5.65625 1.515625 -6.09375 C 1.898438 -6.53125 2.140625 -6.976562 2.234375 -7.4375 C 2.554688 -8.894531 3.273438 -9.921875 4.390625 -10.515625 C 4.867188 -10.785156 5.390625 -11.015625 5.953125 -11.203125 C 6.515625 -11.390625 7.054688 -11.554688 7.578125 -11.703125 C 8.109375 -11.859375 8.585938 -12.039062 9.015625 -12.25 C 9.453125 -12.457031 9.800781 -12.765625 10.0625 -13.171875 C 10.320312 -13.578125 10.453125 -14.171875 10.453125 -14.953125 C 10.453125 -15.742188 10.425781 -16.472656 10.375 -17.140625 C 10.34375 -17.554688 10.285156 -17.867188 10.203125 -18.078125 C 10.117188 -18.296875 10.007812 -18.507812 9.875 -18.71875 C 9.75 -18.925781 9.582031 -19.066406 9.375 -19.140625 C 9.175781 -19.222656 8.890625 -19.265625 8.515625 -19.265625 C 8.148438 -19.265625 7.832031 -19.109375 7.5625 -18.796875 C 7.289062 -18.484375 7.15625 -18.085938 7.15625 -17.609375 C 7.15625 -17.140625 7.320312 -16.566406 7.65625 -15.890625 C 7.988281 -15.210938 8.441406 -14.800781 9.015625 -14.65625 C 8.722656 -13.96875 8.238281 -13.625 7.5625 -13.625 C 6.882812 -13.625 6.257812 -13.84375 5.6875 -14.28125 C 5.738281 -14.226562 5.617188 -13.960938 5.328125 -13.484375 C 5.191406 -13.273438 5.03125 -13.0625 4.84375 -12.84375 C 4.664062 -12.625 4.429688 -12.4375 4.140625 -12.28125 C 3.847656 -12.132812 3.550781 -12.0625 3.25 -12.0625 C 2.945312 -12.0625 2.726562 -12.144531 2.59375 -12.3125 C 3.15625 -12.875 3.4375 -13.398438 3.4375 -13.890625 C 3.4375 -14.078125 3.359375 -14.46875 3.203125 -15.0625 C 3.054688 -15.664062 2.984375 -16.113281 2.984375 -16.40625 C 2.984375 -17.726562 3.488281 -18.796875 4.5 -19.609375 C 4.9375 -19.984375 5.550781 -20.359375 6.34375 -20.734375 C 7.132812 -21.109375 8.046875 -21.296875 9.078125 -21.296875 C 13.390625 -21.296875 15.546875 -18.9375 15.546875 -14.21875 C 15.546875 -13.082031 15.765625 -12.066406 16.203125 -11.171875 C 16.410156 -10.753906 16.863281 -10.34375 17.5625 -9.9375 C 17.5625 -9.894531 17.5 -9.828125 17.375 -9.734375 C 17.25 -9.648438 17.09375 -9.515625 16.90625 -9.328125 C 16.726562 -9.140625 16.546875 -8.898438 16.359375 -8.609375 C 16.179688 -8.316406 16.03125 -7.894531 15.90625 -7.34375 C 15.78125 -6.789062 15.71875 -5.976562 15.71875 -4.90625 C 15.71875 -3.832031 15.859375 -2.890625 16.140625 -2.078125 C 16.421875 -1.273438 16.832031 -0.585938 17.375 -0.015625 C 17.269531 0.171875 17.0625 0.347656 16.75 0.515625 C 16.601562 0.597656 16.390625 0.664062 16.109375 0.71875 C 15.835938 0.78125 15.519531 0.8125 15.15625 0.8125 C 14.789062 0.8125 14.425781 0.71875 14.0625 0.53125 C 13.144531 0.0820312 12.421875 -0.671875 11.890625 -1.734375 Z M 6.90625 -5.09375 C 6.90625 -2.65625 7.414062 -1.4375 8.4375 -1.4375 C 8.875 -1.4375 9.203125 -1.519531 9.421875 -1.6875 C 9.546875 -1.769531 9.65625 -1.851562 9.75 -1.9375 C 9.851562 -2.03125 9.9375 -2.164062 10 -2.34375 C 10.070312 -2.53125 10.164062 -2.765625 10.28125 -3.046875 C 10.394531 -3.328125 10.453125 -4.242188 10.453125 -5.796875 C 10.453125 -5.796875 10.453125 -6.734375 10.453125 -8.609375 C 10.453125 -10.265625 10.457031 -11.09375 10.46875 -11.09375 C 10.1875 -10.800781 9.738281 -10.421875 9.125 -9.953125 C 8.507812 -9.484375 8.015625 -9.015625 7.640625 -8.546875 C 7.148438 -7.898438 6.90625 -6.867188 6.90625 -5.453125 Z M 6.90625 -5.09375 "/></g></g></g><g fill="#ffffff" fill-opacity="1"><g transform="translate(244.21155, 34.582331)"><g><path d="M 15.40625 -11.40625 C 15.3125 -11.15625 15.050781 -11.03125 14.625 -11.03125 C 14.207031 -11.03125 13.78125 -11.171875 13.34375 -11.453125 C 12.914062 -11.742188 12.59375 -12.03125 12.375 -12.3125 L 12.046875 -12.734375 C 11.617188 -12.460938 11.179688 -12.328125 10.734375 -12.328125 C 10.296875 -12.328125 9.960938 -12.351562 9.734375 -12.40625 C 9.515625 -12.46875 9.34375 -12.539062 9.21875 -12.625 C 9.101562 -12.71875 9.003906 -12.816406 8.921875 -12.921875 C 8.804688 -13.078125 8.75 -13.210938 8.75 -13.328125 L 8.765625 -13.40625 C 9.335938 -13.40625 9.859375 -13.75 10.328125 -14.4375 C 10.804688 -15.125 11.046875 -15.789062 11.046875 -16.4375 C 11.046875 -17.71875 10.414062 -18.359375 9.15625 -18.359375 C 8.488281 -18.359375 8.050781 -18.222656 7.84375 -17.953125 C 7.644531 -17.691406 7.503906 -17.472656 7.421875 -17.296875 C 7.347656 -17.117188 7.285156 -16.84375 7.234375 -16.46875 C 7.191406 -15.96875 7.171875 -15.285156 7.171875 -14.421875 C 7.171875 -13.554688 7.222656 -12.847656 7.328125 -12.296875 C 7.441406 -11.753906 7.578125 -11.351562 7.734375 -11.09375 C 7.898438 -10.832031 8.0625 -10.625 8.21875 -10.46875 C 8.375 -10.320312 8.503906 -10.207031 8.609375 -10.125 C 8.722656 -10.050781 8.78125 -9.988281 8.78125 -9.9375 C 8.78125 -9.882812 8.722656 -9.820312 8.609375 -9.75 C 8.503906 -9.675781 8.375 -9.566406 8.21875 -9.421875 C 8.0625 -9.285156 7.90625 -9.09375 7.75 -8.84375 C 7.363281 -8.257812 7.171875 -7.285156 7.171875 -5.921875 C 7.171875 -4.554688 7.425781 -3.53125 7.9375 -2.84375 C 8.457031 -2.15625 9.1875 -1.8125 10.125 -1.8125 C 11.15625 -1.8125 11.894531 -2.191406 12.34375 -2.953125 C 12.789062 -3.734375 13.015625 -4.910156 13.015625 -6.484375 C 13.015625 -6.671875 13.128906 -6.816406 13.359375 -6.921875 C 13.597656 -7.035156 13.894531 -7.09375 14.25 -7.09375 C 14.601562 -7.09375 14.914062 -7.03125 15.1875 -6.90625 C 15.46875 -6.789062 15.609375 -6.628906 15.609375 -6.421875 C 15.609375 -3.796875 14.992188 -1.832031 13.765625 -0.53125 C 12.710938 0.582031 11.34375 1.140625 9.65625 1.140625 C 5.351562 1.140625 2.910156 -1.140625 2.328125 -5.703125 C 2.148438 -7.117188 1.929688 -8.046875 1.671875 -8.484375 C 1.421875 -8.921875 1.226562 -9.21875 1.09375 -9.375 C 0.96875 -9.53125 0.863281 -9.644531 0.78125 -9.71875 C 0.695312 -9.800781 0.65625 -9.867188 0.65625 -9.921875 L 0.65625 -9.953125 C 0.65625 -10.003906 0.707031 -10.066406 0.8125 -10.140625 C 0.914062 -10.222656 1.050781 -10.34375 1.21875 -10.5 C 1.382812 -10.65625 1.539062 -10.867188 1.6875 -11.140625 C 2.0625 -11.765625 2.25 -12.785156 2.25 -14.203125 C 2.3125 -16.429688 2.957031 -18.164062 4.1875 -19.40625 C 5.425781 -20.65625 7.070312 -21.28125 9.125 -21.28125 C 10.425781 -21.28125 11.742188 -20.878906 13.078125 -20.078125 C 13.742188 -19.691406 14.289062 -19.15625 14.71875 -18.46875 C 15.144531 -17.78125 15.359375 -17.113281 15.359375 -16.46875 C 15.359375 -15.832031 15.28125 -15.140625 15.125 -14.390625 C 14.976562 -13.648438 14.90625 -13.097656 14.90625 -12.734375 C 14.90625 -12.367188 15.070312 -11.925781 15.40625 -11.40625 Z M 15.40625 -11.40625 "/></g></g></g><g fill="#ffffff" fill-opacity="1"><g transform="translate(260.569464, 34.582331)"><g><path d="M 5.296875 -25.484375 C 6.171875 -26.660156 7.085938 -27.25 8.046875 -27.25 C 9.003906 -27.25 9.554688 -26.945312 9.703125 -26.34375 C 8.859375 -25.175781 8.273438 -24 7.953125 -22.8125 C 7.640625 -21.625 7.484375 -19.910156 7.484375 -17.671875 C 7.484375 -15.429688 7.523438 -13.394531 7.609375 -11.5625 C 7.867188 -11.5 8.179688 -11.46875 8.546875 -11.46875 C 9.222656 -11.46875 9.9375 -11.515625 10.6875 -11.609375 L 11.0625 -11.65625 C 11.144531 -12.113281 11.25 -12.804688 11.375 -13.734375 C 11.5 -14.660156 11.601562 -15.421875 11.6875 -16.015625 C 11.9375 -17.546875 12.425781 -18.953125 13.15625 -20.234375 C 13.289062 -20.660156 13.535156 -20.972656 13.890625 -21.171875 C 14.035156 -21.242188 14.226562 -21.28125 14.46875 -21.28125 C 14.71875 -21.28125 14.976562 -21.148438 15.25 -20.890625 C 15.53125 -20.628906 15.726562 -20.367188 15.84375 -20.109375 L 16.015625 -19.71875 C 16.347656 -20.125 16.75 -20.484375 17.21875 -20.796875 C 17.6875 -21.117188 18.132812 -21.28125 18.5625 -21.28125 C 19 -21.28125 19.375 -21.222656 19.6875 -21.109375 C 20.007812 -20.992188 20.203125 -20.882812 20.265625 -20.78125 C 20.335938 -20.675781 20.378906 -20.5625 20.390625 -20.4375 C 18.828125 -19.738281 17.707031 -18.40625 17.03125 -16.4375 C 16.863281 -15.96875 16.742188 -15.390625 16.671875 -14.703125 C 16.597656 -14.023438 16.425781 -13.347656 16.15625 -12.671875 C 15.882812 -12.003906 15.597656 -11.53125 15.296875 -11.25 C 14.992188 -10.976562 14.695312 -10.769531 14.40625 -10.625 C 14.125 -10.488281 13.882812 -10.382812 13.6875 -10.3125 C 13.5 -10.25 13.40625 -10.164062 13.40625 -10.0625 C 13.40625 -9.957031 13.46875 -9.863281 13.59375 -9.78125 C 13.726562 -9.695312 13.894531 -9.617188 14.09375 -9.546875 C 14.300781 -9.484375 14.53125 -9.34375 14.78125 -9.125 C 15.03125 -8.914062 15.273438 -8.65625 15.515625 -8.34375 C 16.078125 -7.632812 16.476562 -6.425781 16.71875 -4.71875 C 16.894531 -3.625 17.4375 -2.539062 18.34375 -1.46875 C 18.882812 -0.800781 19.515625 -0.316406 20.234375 -0.015625 C 20.148438 0.546875 19.5 0.828125 18.28125 0.828125 C 17.9375 0.828125 17.5625 0.695312 17.15625 0.4375 C 16.75 0.175781 16.429688 -0.0820312 16.203125 -0.34375 L 15.84375 -0.734375 C 15.695312 -0.148438 15.34375 0.3125 14.78125 0.65625 C 14.59375 0.769531 14.375 0.828125 14.125 0.828125 C 13.875 0.828125 13.648438 0.742188 13.453125 0.578125 C 13.265625 0.421875 13.117188 0.179688 13.015625 -0.140625 C 12.773438 -0.554688 12.398438 -1.8125 11.890625 -3.90625 C 11.390625 -6.007812 11.117188 -7.5625 11.078125 -8.5625 C 10.703125 -8.707031 10.097656 -8.78125 9.265625 -8.78125 C 8.441406 -8.78125 7.898438 -8.800781 7.640625 -8.84375 L 7.484375 -5.34375 C 7.484375 -3.976562 7.640625 -2.921875 7.953125 -2.171875 C 8.273438 -1.429688 8.859375 -0.722656 9.703125 -0.046875 C 9.410156 0.535156 8.800781 0.828125 7.875 0.828125 C 6.945312 0.828125 6.085938 0.25 5.296875 -0.90625 C 4.429688 0.25 3.535156 0.828125 2.609375 0.828125 C 1.953125 0.828125 1.523438 0.734375 1.328125 0.546875 C 1.066406 0.296875 0.914062 0.0976562 0.875 -0.046875 C 1.644531 -0.734375 2.175781 -1.445312 2.46875 -2.1875 C 2.757812 -2.925781 2.90625 -3.820312 2.90625 -4.875 C 2.90625 -5.925781 2.84375 -6.734375 2.71875 -7.296875 C 2.59375 -7.867188 2.441406 -8.300781 2.265625 -8.59375 C 2.085938 -8.882812 1.910156 -9.117188 1.734375 -9.296875 C 1.554688 -9.484375 1.40625 -9.625 1.28125 -9.71875 C 1.15625 -9.8125 1.09375 -9.910156 1.09375 -10.015625 C 1.09375 -10.117188 1.15625 -10.25 1.28125 -10.40625 C 1.40625 -10.5625 1.554688 -10.769531 1.734375 -11.03125 C 1.910156 -11.300781 2.085938 -11.660156 2.265625 -12.109375 C 2.691406 -13.179688 2.90625 -14.9375 2.90625 -17.375 C 2.90625 -19.8125 2.757812 -21.65625 2.46875 -22.90625 C 2.175781 -24.15625 1.640625 -25.296875 0.859375 -26.328125 C 1.160156 -26.941406 1.742188 -27.25 2.609375 -27.25 C 3.203125 -27.25 3.675781 -27.097656 4.03125 -26.796875 C 4.613281 -26.316406 5.035156 -25.878906 5.296875 -25.484375 Z M 5.296875 -25.484375 "/></g></g></g></g></g></svg>